<svg xmlns="http://www.w3.org/2000/svg" width="1800" height="1060" viewBox="0 0 1800 1060" role="img">
    <style>
      .title { font-family: Georgia, Times, serif; font-size: 42px; fill: #050505; }
      .subtitle { font-family: Arial, Helvetica, sans-serif; font-size: 22px; fill: #8b8b8b; font-weight: 650; }
      .tab { font-family: Arial, Helvetica, sans-serif; font-size: 23px; fill: #4e4e4e; font-weight: 760; }
      .tab-active { fill: #111111; }
      .axis { font-family: Arial, Helvetica, sans-serif; font-size: 18px; fill: #767676; font-weight: 600; }
      .axis-title { font-family: Arial, Helvetica, sans-serif; font-size: 22px; fill: #101010; font-weight: 720; }
      .legend { font-family: Arial, Helvetica, sans-serif; font-size: 20px; fill: #151515; font-weight: 680; }
      .x-label { font-family: Arial, Helvetica, sans-serif; font-size: 18px; fill: #151515; font-weight: 650; }
      .bar-label { font-family: Arial, Helvetica, sans-serif; font-size: 22px; fill: #ffffff; font-weight: 800; }
      .top-label { font-family: Arial, Helvetica, sans-serif; font-size: 19px; fill: #939393; font-weight: 750; }
      .small-note { font-family: Arial, Helvetica, sans-serif; font-size: 18px; fill: #949494; font-weight: 650; }
      .point-label { font-family: Arial, Helvetica, sans-serif; font-size: 19px; fill: #4a4a4a; font-weight: 700; }
      .brand { font-family: Georgia, Times, serif; font-size: 26px; fill: #555555; }
    </style>
    <rect x="24.00" y="24.00" width="1752.00" height="1012.00" fill="#ffffff" stroke="#dddddd" rx="16.00" />
<text x="84.00" y="84.00" text-anchor="start" class="tab">Robust</text>
<text x="276.00" y="84.00" text-anchor="start" class="tab">O-Eval</text>
<rect x="450.00" y="48.00" width="210.00" height="58.00" fill="#efefef" rx="8.00" />
<text x="468.00" y="84.00" text-anchor="start" class="tab tab-active">Token Usage</text>
<text x="730.00" y="84.00" text-anchor="start" class="tab">Cost</text>
<text x="892.00" y="84.00" text-anchor="start" class="tab">Robust vs. Cost</text>
<text x="1174.00" y="84.00" text-anchor="start" class="tab">O vs. Cost</text>
<line x1="24.00" y1="114.00" x2="1776.00" y2="114.00" stroke="#dddddd" stroke-width="1.20" />
<text x="66.00" y="170.00" text-anchor="start" class="title">Token Usage</text>
<text x="66.00" y="210.00" text-anchor="start" class="subtitle">Run tokens split into cache-miss input, cached-read input, and output. Qwen cache is peer-average imputed.</text>
<circle cx="76.00" cy="278.00" r="8.00" fill="#4c4c4c" />
<text x="94.00" y="285.00" text-anchor="start" class="legend">Billable input</text>
<circle cx="270.00" cy="278.00" r="8.00" fill="#cfcfcf" />
<text x="288.00" y="285.00" text-anchor="start" class="legend">Cache hit input</text>
<circle cx="480.00" cy="278.00" r="8.00" fill="#2f80ed" />
<text x="498.00" y="285.00" text-anchor="start" class="legend">Output</text>
<rect x="1282.00" y="302.00" width="9" height="9" rx="1.5" fill="#8a63ff" transform="rotate(-45 1286.50 306.50)" />
<rect x="1295.00" y="302.00" width="9" height="9" rx="1.5" fill="#8a63ff" transform="rotate(-45 1299.50 306.50)" />
<rect x="1282.00" y="316.00" width="9" height="9" rx="1.5" fill="#8a63ff" transform="rotate(-45 1286.50 320.50)" />
<text x="1316.00" y="326.00" text-anchor="start" class="brand">Terminal-Bench Math Modeling</text>
<line x1="132.00" y1="780.00" x2="1702.00" y2="780.00" stroke="#cfcfcf" stroke-width="1.20" stroke-dasharray="4 8" />
<text x="114.00" y="786.00" text-anchor="end" class="axis">0.0M</text>
<line x1="132.00" y1="708.33" x2="1702.00" y2="708.33" stroke="#cfcfcf" stroke-width="1.20" stroke-dasharray="4 8" />
<text x="114.00" y="714.33" text-anchor="end" class="axis">57M</text>
<line x1="132.00" y1="636.67" x2="1702.00" y2="636.67" stroke="#cfcfcf" stroke-width="1.20" stroke-dasharray="4 8" />
<text x="114.00" y="642.67" text-anchor="end" class="axis">113M</text>
<line x1="132.00" y1="565.00" x2="1702.00" y2="565.00" stroke="#cfcfcf" stroke-width="1.20" stroke-dasharray="4 8" />
<text x="114.00" y="571.00" text-anchor="end" class="axis">170M</text>
<line x1="132.00" y1="493.33" x2="1702.00" y2="493.33" stroke="#cfcfcf" stroke-width="1.20" stroke-dasharray="4 8" />
<text x="114.00" y="499.33" text-anchor="end" class="axis">227M</text>
<line x1="132.00" y1="421.67" x2="1702.00" y2="421.67" stroke="#cfcfcf" stroke-width="1.20" stroke-dasharray="4 8" />
<text x="114.00" y="427.67" text-anchor="end" class="axis">283M</text>
<line x1="132.00" y1="350.00" x2="1702.00" y2="350.00" stroke="#cfcfcf" stroke-width="1.20" stroke-dasharray="4 8" />
<text x="114.00" y="356.00" text-anchor="end" class="axis">340M</text>
<line x1="132.00" y1="780.00" x2="1702.00" y2="780.00" stroke="#dadada" stroke-width="1.20" />
<text x="44.00" y="565.00" text-anchor="middle" class="axis-title" transform="rotate(-90 44.00 565.00)">Tokens (million)</text>
<rect x="132.00" y="778.47" width="111.82" height="1.53" fill="#4c4c4c" />
<rect x="132.00" y="768.90" width="111.82" height="9.57" fill="#cfcfcf" />
<rect x="132.00" y="768.27" width="111.82" height="0.63" fill="#202020" />
<text x="187.91" y="754.27" text-anchor="middle" class="top-label">9.3M</text>
<g transform="translate(187.91,824.00) rotate(-55)"><text class="x-label" text-anchor="end"><tspan x="0" dy="0">GPT-5.6</tspan><tspan x="0" dy="17">Sol</tspan></text></g>
<rect x="277.82" y="778.14" width="111.82" height="1.86" fill="#4c4c4c" />
<rect x="277.82" y="764.58" width="111.82" height="13.56" fill="#cfcfcf" />
<rect x="277.82" y="763.59" width="111.82" height="0.99" fill="#0f766e" />
<text x="333.73" y="749.59" text-anchor="middle" class="top-label">13M</text>
<g transform="translate(333.73,824.00) rotate(-55)"><text class="x-label" text-anchor="end"><tspan x="0" dy="0">GPT-5.6</tspan><tspan x="0" dy="17">Sol XH</tspan></text></g>
<rect x="423.64" y="778.47" width="111.82" height="1.53" fill="#4c4c4c" />
<rect x="423.64" y="753.05" width="111.82" height="25.42" fill="#cfcfcf" />
<rect x="423.64" y="750.84" width="111.82" height="2.21" fill="#2945d9" />
<text x="479.55" y="736.84" text-anchor="middle" class="top-label">23M</text>
<g transform="translate(479.55,824.00) rotate(-55)"><text class="x-label" text-anchor="end"><tspan x="0" dy="0">DeepSeek V4</tspan><tspan x="0" dy="17">Pro</tspan></text></g>
<rect x="569.45" y="778.46" width="111.82" height="1.54" fill="#4c4c4c" />
<rect x="569.45" y="741.87" width="111.82" height="36.59" fill="#cfcfcf" />
<rect x="569.45" y="740.66" width="111.82" height="1.21" fill="#1f83ff" />
<text x="625.36" y="726.66" text-anchor="middle" class="top-label">31M</text>
<g transform="translate(625.36,824.00) rotate(-55)"><text class="x-label" text-anchor="end"><tspan x="0" dy="0">Kimi K3</tspan></text></g>
<rect x="715.27" y="778.44" width="111.82" height="1.56" fill="#4c4c4c" />
<rect x="715.27" y="738.22" width="111.82" height="40.22" fill="#cfcfcf" />
<rect x="715.27" y="735.82" width="111.82" height="2.40" fill="#2f80ed" />
<text x="771.18" y="721.82" text-anchor="middle" class="top-label">35M</text>
<g transform="translate(771.18,824.00) rotate(-55)"><text class="x-label" text-anchor="end"><tspan x="0" dy="0">DeepSeek V4</tspan><tspan x="0" dy="17">Flash</tspan></text></g>
<rect x="861.09" y="720.25" width="111.82" height="59.75" fill="#4c4c4c" />
<text x="917.00" y="757.12" text-anchor="middle" class="bar-label" fill="#ffffff" font-size="19">47M</text>
<rect x="861.09" y="720.25" width="111.82" height="0.00" fill="#cfcfcf" />
<rect x="861.09" y="716.23" width="111.82" height="4.02" fill="#7c3aed" />
<text x="917.00" y="702.23" text-anchor="middle" class="top-label">50M</text>
<g transform="translate(917.00,824.00) rotate(-55)"><text class="x-label" text-anchor="end"><tspan x="0" dy="0">Qwen3.8</tspan><tspan x="0" dy="17">27B</tspan></text></g>
<rect x="1006.91" y="771.61" width="111.82" height="8.39" fill="#4c4c4c" />
<rect x="1006.91" y="692.57" width="111.82" height="79.04" fill="#cfcfcf" />
<text x="1062.82" y="739.09" text-anchor="middle" class="bar-label" fill="#ffffff" font-size="19">62M</text>
<rect x="1006.91" y="691.68" width="111.82" height="0.89" fill="#34a853" />
<text x="1062.82" y="677.68" text-anchor="middle" class="top-label">70M</text>
<g transform="translate(1062.82,824.00) rotate(-55)"><text class="x-label" text-anchor="end"><tspan x="0" dy="0">Gemini 3.7</tspan><tspan x="0" dy="17">Flash</tspan></text></g>
<rect x="1152.73" y="776.94" width="111.82" height="3.06" fill="#4c4c4c" />
<rect x="1152.73" y="663.58" width="111.82" height="113.37" fill="#cfcfcf" />
<text x="1208.64" y="727.26" text-anchor="middle" class="bar-label" fill="#ffffff" font-size="19">90M</text>
<rect x="1152.73" y="660.24" width="111.82" height="3.34" fill="#6f6f6f" />
<text x="1208.64" y="646.24" text-anchor="middle" class="top-label">95M</text>
<g transform="translate(1208.64,824.00) rotate(-55)"><text class="x-label" text-anchor="end"><tspan x="0" dy="0">GLM-5.3</tspan></text></g>
<rect x="1298.55" y="772.08" width="111.82" height="7.92" fill="#4c4c4c" />
<rect x="1298.55" y="643.76" width="111.82" height="128.33" fill="#cfcfcf" />
<text x="1354.45" y="714.92" text-anchor="middle" class="bar-label" fill="#ffffff" font-size="19">101M</text>
<rect x="1298.55" y="639.10" width="111.82" height="4.66" fill="#777777" />
<text x="1354.45" y="625.10" text-anchor="middle" class="top-label">111M</text>
<g transform="translate(1354.45,824.00) rotate(-55)"><text class="x-label" text-anchor="end"><tspan x="0" dy="0">GLM-5.3-Flash (ox-alpha)</tspan></text></g>
<rect x="1444.36" y="774.02" width="111.82" height="5.98" fill="#4c4c4c" />
<rect x="1444.36" y="610.87" width="111.82" height="163.15" fill="#cfcfcf" />
<text x="1500.27" y="699.44" text-anchor="middle" class="bar-label" fill="#ffffff" font-size="19">129M</text>
<rect x="1444.36" y="608.25" width="111.82" height="2.62" fill="#dc2626" />
<text x="1500.27" y="594.25" text-anchor="middle" class="top-label">136M</text>
<g transform="translate(1500.27,824.00) rotate(-55)"><text class="x-label" text-anchor="end"><tspan x="0" dy="0">Hy4</tspan><tspan x="0" dy="17">Preview</tspan></text></g>
<rect x="1590.18" y="772.34" width="111.82" height="7.66" fill="#4c4c4c" />
<rect x="1590.18" y="401.07" width="111.82" height="371.27" fill="#cfcfcf" />
<text x="1646.09" y="593.71" text-anchor="middle" class="bar-label" fill="#ffffff" font-size="19">294M</text>
<rect x="1590.18" y="392.45" width="111.82" height="8.62" fill="#777777" />
<text x="1646.09" y="378.45" text-anchor="middle" class="top-label">306M</text>
<g transform="translate(1646.09,824.00) rotate(-55)"><text class="x-label" text-anchor="end"><tspan x="0" dy="0">Qwen3.8 Flash (Bailian)</tspan></text></g>
<text x="917.00" y="994.00" text-anchor="middle" class="small-note">Cache-hit input is displayed separately and charged when the report price table provides a cached-read price.</text></svg>
