<svg xmlns="http://www.w3.org/2000/svg" width="1800" height="1060" viewBox="0 0 1800 1060" role="img">
    <style>
      .title { font-family: Georgia, Times, serif; font-size: 42px; fill: #050505; }
      .subtitle { font-family: Arial, Helvetica, sans-serif; font-size: 22px; fill: #8b8b8b; font-weight: 650; }
      .tab { font-family: Arial, Helvetica, sans-serif; font-size: 23px; fill: #4e4e4e; font-weight: 760; }
      .tab-active { fill: #111111; }
      .axis { font-family: Arial, Helvetica, sans-serif; font-size: 18px; fill: #767676; font-weight: 600; }
      .axis-title { font-family: Arial, Helvetica, sans-serif; font-size: 22px; fill: #101010; font-weight: 720; }
      .legend { font-family: Arial, Helvetica, sans-serif; font-size: 20px; fill: #151515; font-weight: 680; }
      .x-label { font-family: Arial, Helvetica, sans-serif; font-size: 18px; fill: #151515; font-weight: 650; }
      .bar-label { font-family: Arial, Helvetica, sans-serif; font-size: 22px; fill: #ffffff; font-weight: 800; }
      .top-label { font-family: Arial, Helvetica, sans-serif; font-size: 19px; fill: #939393; font-weight: 750; }
      .small-note { font-family: Arial, Helvetica, sans-serif; font-size: 18px; fill: #949494; font-weight: 650; }
      .point-label { font-family: Arial, Helvetica, sans-serif; font-size: 19px; fill: #4a4a4a; font-weight: 700; }
      .brand { font-family: Georgia, Times, serif; font-size: 26px; fill: #555555; }
    </style>
    <rect x="24.00" y="24.00" width="1752.00" height="1012.00" fill="#ffffff" stroke="#dddddd" rx="16.00" />
<text x="84.00" y="84.00" text-anchor="start" class="tab">Robust</text>
<text x="276.00" y="84.00" text-anchor="start" class="tab">O-Eval</text>
<text x="468.00" y="84.00" text-anchor="start" class="tab">Token Usage</text>
<rect x="712.00" y="48.00" width="110.00" height="58.00" fill="#efefef" rx="8.00" />
<text x="730.00" y="84.00" text-anchor="start" class="tab tab-active">Cost</text>
<text x="892.00" y="84.00" text-anchor="start" class="tab">Robust vs. Cost</text>
<text x="1174.00" y="84.00" text-anchor="start" class="tab">O vs. Cost</text>
<line x1="24.00" y1="114.00" x2="1776.00" y2="114.00" stroke="#dddddd" stroke-width="1.20" />
<text x="66.00" y="170.00" text-anchor="start" class="title">Estimated Cost</text>
<text x="66.00" y="210.00" text-anchor="start" class="subtitle">RMB estimate from the report price table: OpenRouter catalog when available, local fallback otherwise.</text>
<circle cx="76.00" cy="278.00" r="8.00" fill="#d9dde4" />
<text x="94.00" y="285.00" text-anchor="start" class="legend">Input cost</text>
<circle cx="242.00" cy="278.00" r="8.00" fill="#cfcfcf" />
<text x="260.00" y="285.00" text-anchor="start" class="legend">Cache hit cost</text>
<circle cx="448.00" cy="278.00" r="8.00" fill="#2f80ed" />
<text x="466.00" y="285.00" text-anchor="start" class="legend">Output cost</text>
<rect x="1282.00" y="302.00" width="9" height="9" rx="1.5" fill="#8a63ff" transform="rotate(-45 1286.50 306.50)" />
<rect x="1295.00" y="302.00" width="9" height="9" rx="1.5" fill="#8a63ff" transform="rotate(-45 1299.50 306.50)" />
<rect x="1282.00" y="316.00" width="9" height="9" rx="1.5" fill="#8a63ff" transform="rotate(-45 1286.50 320.50)" />
<text x="1316.00" y="326.00" text-anchor="start" class="brand">Terminal-Bench Math Modeling</text>
<line x1="132.00" y1="780.00" x2="1702.00" y2="780.00" stroke="#cfcfcf" stroke-width="1.20" stroke-dasharray="4 8" />
<text x="114.00" y="786.00" text-anchor="end" class="axis">0</text>
<line x1="132.00" y1="694.00" x2="1702.00" y2="694.00" stroke="#cfcfcf" stroke-width="1.20" stroke-dasharray="4 8" />
<text x="114.00" y="700.00" text-anchor="end" class="axis">60</text>
<line x1="132.00" y1="608.00" x2="1702.00" y2="608.00" stroke="#cfcfcf" stroke-width="1.20" stroke-dasharray="4 8" />
<text x="114.00" y="614.00" text-anchor="end" class="axis">120</text>
<line x1="132.00" y1="522.00" x2="1702.00" y2="522.00" stroke="#cfcfcf" stroke-width="1.20" stroke-dasharray="4 8" />
<text x="114.00" y="528.00" text-anchor="end" class="axis">180</text>
<line x1="132.00" y1="436.00" x2="1702.00" y2="436.00" stroke="#cfcfcf" stroke-width="1.20" stroke-dasharray="4 8" />
<text x="114.00" y="442.00" text-anchor="end" class="axis">240</text>
<line x1="132.00" y1="350.00" x2="1702.00" y2="350.00" stroke="#cfcfcf" stroke-width="1.20" stroke-dasharray="4 8" />
<text x="114.00" y="356.00" text-anchor="end" class="axis">300</text>
<line x1="132.00" y1="780.00" x2="1702.00" y2="780.00" stroke="#dadada" stroke-width="1.20" />
<text x="44.00" y="565.00" text-anchor="middle" class="axis-title" transform="rotate(-90 44.00 565.00)">Estimated cost (RMB)</text>
<rect x="132.00" y="779.39" width="144.22" height="0.61" fill="#d9dde4" />
<rect x="132.00" y="777.02" width="144.22" height="2.37" fill="#cfcfcf" />
<rect x="132.00" y="775.83" width="144.22" height="1.19" fill="#2f80ed" />
<text x="204.11" y="761.83" text-anchor="middle" class="top-label">RMB 2.91</text>
<g transform="translate(204.11,824.00) rotate(-55)"><text class="x-label" text-anchor="end"><tspan x="0" dy="0">DeepSeek V4</tspan><tspan x="0" dy="17">Flash</tspan></text></g>
<rect x="310.22" y="775.58" width="144.22" height="4.42" fill="#d9dde4" />
<rect x="310.22" y="762.17" width="144.22" height="13.42" fill="#cfcfcf" />
<rect x="310.22" y="753.96" width="144.22" height="8.21" fill="#777777" />
<text x="382.33" y="739.97" text-anchor="middle" class="top-label">RMB 18.16</text>
<g transform="translate(382.33,824.00) rotate(-55)"><text class="x-label" text-anchor="end"><tspan x="0" dy="0">GLM-5.3-Flash (ox-alpha)</tspan></text></g>
<rect x="488.44" y="771.79" width="144.22" height="8.21" fill="#d9dde4" />
<rect x="488.44" y="760.46" width="144.22" height="11.34" fill="#cfcfcf" />
<rect x="488.44" y="736.78" width="144.22" height="23.67" fill="#2945d9" />
<text x="560.56" y="722.78" text-anchor="middle" class="top-label">RMB 30.15</text>
<g transform="translate(560.56,824.00) rotate(-55)"><text class="x-label" text-anchor="end"><tspan x="0" dy="0">DeepSeek V4</tspan><tspan x="0" dy="17">Pro</tspan></text></g>
<rect x="666.67" y="773.76" width="144.22" height="6.24" fill="#d9dde4" />
<rect x="666.67" y="741.69" width="144.22" height="32.08" fill="#cfcfcf" />
<rect x="666.67" y="720.93" width="144.22" height="20.75" fill="#777777" />
<text x="738.78" y="706.93" text-anchor="middle" class="top-label">RMB 41.21</text>
<g transform="translate(738.78,824.00) rotate(-55)"><text class="x-label" text-anchor="end"><tspan x="0" dy="0">Qwen3.8 Flash (Bailian)</tspan></text></g>
<rect x="844.89" y="756.67" width="144.22" height="23.33" fill="#d9dde4" />
<rect x="844.89" y="742.06" width="144.22" height="14.61" fill="#cfcfcf" />
<rect x="844.89" y="694.02" width="144.22" height="48.04" fill="#202020" />
<text x="917.00" y="725.04" text-anchor="middle" class="bar-label" fill="#ffffff" font-size="18">33.5</text>
<text x="917.00" y="680.03" text-anchor="middle" class="top-label">RMB 59.98</text>
<g transform="translate(917.00,824.00) rotate(-55)"><text class="x-label" text-anchor="end"><tspan x="0" dy="0">GPT-5.6</tspan><tspan x="0" dy="17">Sol</tspan></text></g>
<rect x="1023.11" y="731.95" width="144.22" height="48.05" fill="#d9dde4" />
<text x="1095.22" y="762.98" text-anchor="middle" class="bar-label" fill="#777777" font-size="18">33.5</text>
<rect x="1023.11" y="686.69" width="144.22" height="45.26" fill="#cfcfcf" />
<text x="1095.22" y="716.32" text-anchor="middle" class="bar-label" fill="#777777" font-size="18">31.6</text>
<rect x="1023.11" y="661.13" width="144.22" height="25.56" fill="#34a853" />
<text x="1095.22" y="647.13" text-anchor="middle" class="top-label">RMB 82.93</text>
<g transform="translate(1095.22,824.00) rotate(-55)"><text class="x-label" text-anchor="end"><tspan x="0" dy="0">Gemini 3.7</tspan><tspan x="0" dy="17">Flash</tspan></text></g>
<rect x="1201.33" y="744.74" width="144.22" height="35.26" fill="#d9dde4" />
<rect x="1201.33" y="660.94" width="144.22" height="83.80" fill="#cfcfcf" />
<text x="1273.44" y="709.84" text-anchor="middle" class="bar-label" fill="#777777" font-size="18">58.5</text>
<rect x="1201.33" y="522.35" width="144.22" height="138.59" fill="#1f83ff" />
<text x="1273.44" y="598.64" text-anchor="middle" class="bar-label" fill="#ffffff" font-size="18">96.7</text>
<text x="1273.44" y="508.34" text-anchor="middle" class="top-label">RMB 179.76</text>
<g transform="translate(1273.44,824.00) rotate(-55)"><text class="x-label" text-anchor="end"><tspan x="0" dy="0">Kimi K3</tspan></text></g>
<rect x="1379.56" y="586.11" width="144.22" height="193.89" fill="#d9dde4" />
<text x="1451.67" y="690.05" text-anchor="middle" class="bar-label" fill="#777777" font-size="18">135.3</text>
<rect x="1379.56" y="507.84" width="144.22" height="78.26" fill="#7c3aed" />
<text x="1451.67" y="553.97" text-anchor="middle" class="bar-label" fill="#ffffff" font-size="18">54.6</text>
<text x="1451.67" y="493.84" text-anchor="middle" class="top-label">RMB 189.88</text>
<g transform="translate(1451.67,824.00) rotate(-55)"><text class="x-label" text-anchor="end"><tspan x="0" dy="0">Qwen3.8</tspan><tspan x="0" dy="17">27B</tspan></text></g>
<rect x="1557.78" y="747.29" width="144.22" height="32.71" fill="#d9dde4" />
<rect x="1557.78" y="522.25" width="144.22" height="225.05" fill="#cfcfcf" />
<text x="1629.89" y="641.77" text-anchor="middle" class="bar-label" fill="#777777" font-size="18">157.0</text>
<rect x="1557.78" y="410.13" width="144.22" height="112.12" fill="#6f6f6f" />
<text x="1629.89" y="473.19" text-anchor="middle" class="bar-label" fill="#ffffff" font-size="18">78.2</text>
<text x="1629.89" y="396.13" text-anchor="middle" class="top-label">RMB 258.05</text>
<g transform="translate(1629.89,824.00) rotate(-55)"><text class="x-label" text-anchor="end"><tspan x="0" dy="0">GLM-5.3</tspan></text></g>
<text x="917.00" y="994.00" text-anchor="middle" class="small-note">Price split is parsed from the generated report; USD/token prices use USD/CNY 6.737012.</text></svg>
