<svg xmlns="http://www.w3.org/2000/svg" width="1800" height="1120" viewBox="0 0 1800 1120" role="img">
    <style>
      .title { font-family: Georgia, Times, serif; font-size: 42px; font-weight: 500; fill: #050505; }
      .subtitle { font-family: Arial, Helvetica, sans-serif; font-size: 22px; fill: #777777; font-weight: 650; }
      .axis { font-family: Arial, Helvetica, sans-serif; font-size: 18px; fill: #777777; font-weight: 650; }
      .axis-title { font-family: Arial, Helvetica, sans-serif; font-size: 22px; fill: #111111; font-weight: 720; }
      .label { font-family: Arial, Helvetica, sans-serif; font-size: 19px; fill: #151515; font-weight: 700; }
      .small { font-family: Arial, Helvetica, sans-serif; font-size: 18px; fill: #777777; font-weight: 650; }
    </style>
    <rect width="1800" height="1120" fill="#ffffff"/><rect x="24.0" y="24.0" width="1752.0" height="1072.0" fill="#ffffff" rx="16.0" stroke="#dedede" />
<text x="72.0" y="126.0" text-anchor="start" font-family="Arial, Helvetica, sans-serif" font-size="42" font-weight="500" fill="#151515">Robust BO-Eval by Suite</text>
<text x="72.0" y="168.0" text-anchor="start" font-family="Arial, Helvetica, sans-serif" font-size="22" font-weight="650" fill="#777777">CUMCM and MCM expose different failure modes; missing artifacts still contribute raw 0.</text>
<line x1="132.0" y1="800.0" x2="1672.0" y2="800.0" stroke="#d7d7d7" stroke-width="1.0" stroke-dasharray="4 8" />
<text x="114.0" y="806.0" text-anchor="end" font-family="Arial, Helvetica, sans-serif" font-size="18" font-weight="600" fill="#777777">-50%</text>
<line x1="132.0" y1="675.0" x2="1672.0" y2="675.0" stroke="#aaaaaa" stroke-width="1.4" />
<text x="114.0" y="681.0" text-anchor="end" font-family="Arial, Helvetica, sans-serif" font-size="18" font-weight="600" fill="#777777">0%</text>
<line x1="132.0" y1="550.0" x2="1672.0" y2="550.0" stroke="#d7d7d7" stroke-width="1.0" stroke-dasharray="4 8" />
<text x="114.0" y="556.0" text-anchor="end" font-family="Arial, Helvetica, sans-serif" font-size="18" font-weight="600" fill="#777777">50%</text>
<line x1="132.0" y1="425.0" x2="1672.0" y2="425.0" stroke="#d7d7d7" stroke-width="1.0" stroke-dasharray="4 8" />
<text x="114.0" y="431.0" text-anchor="end" font-family="Arial, Helvetica, sans-serif" font-size="18" font-weight="600" fill="#777777">100%</text>
<line x1="132.0" y1="300.0" x2="1672.0" y2="300.0" stroke="#d7d7d7" stroke-width="1.0" stroke-dasharray="4 8" />
<text x="114.0" y="306.0" text-anchor="end" font-family="Arial, Helvetica, sans-serif" font-size="18" font-weight="600" fill="#777777">150%</text>
<text x="493.0" y="850.0" text-anchor="middle" font-family="Arial, Helvetica, sans-serif" font-size="24" font-weight="800" fill="#151515">CUMCM</text>
<rect x="132.0" y="646.5" width="79.8" height="28.5" fill="#2945d9" rx="5.0" />
<rect x="223.8" y="664.0" width="79.8" height="11.0" fill="#6f6f6f" rx="5.0" />
<rect x="315.5" y="636.9" width="79.8" height="38.1" fill="#202020" rx="5.0" />
<text x="355.4" y="662.9" text-anchor="middle" font-family="Arial, Helvetica, sans-serif" font-size="15" font-weight="800" fill="#ffffff">15</text>
<rect x="407.2" y="657.2" width="79.8" height="17.8" fill="#1f83ff" rx="5.0" />
<rect x="499.0" y="649.7" width="79.8" height="25.3" fill="#34a853" rx="5.0" />
<rect x="590.8" y="651.5" width="79.8" height="23.5" fill="#7c3aed" rx="5.0" />
<rect x="682.5" y="639.5" width="79.8" height="35.5" fill="#f59e0b" rx="5.0" />
<text x="722.4" y="664.3" text-anchor="middle" font-family="Arial, Helvetica, sans-serif" font-size="15" font-weight="800" fill="#ffffff">14</text>
<rect x="774.2" y="650.6" width="79.8" height="24.4" fill="#0f766e" rx="5.0" />
<text x="1311.0" y="850.0" text-anchor="middle" font-family="Arial, Helvetica, sans-serif" font-size="24" font-weight="800" fill="#151515">MCM</text>
<rect x="950.0" y="658.6" width="79.8" height="16.4" fill="#2945d9" rx="5.0" />
<rect x="1041.8" y="646.9" width="79.8" height="28.1" fill="#6f6f6f" rx="5.0" />
<rect x="1133.5" y="654.7" width="79.8" height="20.3" fill="#202020" rx="5.0" />
<rect x="1225.2" y="637.4" width="79.8" height="37.6" fill="#1f83ff" rx="5.0" />
<text x="1265.1" y="663.2" text-anchor="middle" font-family="Arial, Helvetica, sans-serif" font-size="15" font-weight="800" fill="#ffffff">15</text>
<rect x="1317.0" y="675.0" width="79.8" height="12.7" fill="#34a853" rx="5.0" />
<rect x="1408.8" y="643.1" width="79.8" height="31.9" fill="#7c3aed" rx="5.0" />
<rect x="1500.5" y="638.1" width="79.8" height="36.9" fill="#f59e0b" rx="5.0" />
<text x="1540.4" y="663.5" text-anchor="middle" font-family="Arial, Helvetica, sans-serif" font-size="15" font-weight="800" fill="#ffffff">15</text>
<rect x="1592.2" y="659.3" width="79.8" height="15.7" fill="#0f766e" rx="5.0" />
<rect x="132.0" y="940.0" width="22.0" height="16.0" fill="#2945d9" rx="3.0" />
<text x="164.0" y="956.0" text-anchor="start" font-family="Arial, Helvetica, sans-serif" font-size="18" font-weight="600" fill="#555555">DeepSeek V4 Pro</text>
<rect x="492.0" y="940.0" width="22.0" height="16.0" fill="#6f6f6f" rx="3.0" />
<text x="524.0" y="956.0" text-anchor="start" font-family="Arial, Helvetica, sans-serif" font-size="18" font-weight="600" fill="#555555">GLM-5.3</text>
<rect x="852.0" y="940.0" width="22.0" height="16.0" fill="#202020" rx="3.0" />
<text x="884.0" y="956.0" text-anchor="start" font-family="Arial, Helvetica, sans-serif" font-size="18" font-weight="600" fill="#555555">GPT-5.6 Sol</text>
<rect x="1212.0" y="940.0" width="22.0" height="16.0" fill="#1f83ff" rx="3.0" />
<text x="1244.0" y="956.0" text-anchor="start" font-family="Arial, Helvetica, sans-serif" font-size="18" font-weight="600" fill="#555555">Kimi K3</text>
<rect x="132.0" y="982.0" width="22.0" height="16.0" fill="#34a853" rx="3.0" />
<text x="164.0" y="998.0" text-anchor="start" font-family="Arial, Helvetica, sans-serif" font-size="18" font-weight="600" fill="#555555">Gemini 3.7 Flash</text>
<rect x="492.0" y="982.0" width="22.0" height="16.0" fill="#7c3aed" rx="3.0" />
<text x="524.0" y="998.0" text-anchor="start" font-family="Arial, Helvetica, sans-serif" font-size="18" font-weight="600" fill="#555555">Qwen3.8 27B</text>
<rect x="852.0" y="982.0" width="22.0" height="16.0" fill="#f59e0b" rx="3.0" />
<text x="884.0" y="998.0" text-anchor="start" font-family="Arial, Helvetica, sans-serif" font-size="18" font-weight="600" fill="#555555">GLM-5.3-Flash</text>
<rect x="1212.0" y="982.0" width="22.0" height="16.0" fill="#0f766e" rx="3.0" />
<text x="1244.0" y="998.0" text-anchor="start" font-family="Arial, Helvetica, sans-serif" font-size="18" font-weight="600" fill="#555555">Qwen3.8 Flash</text></svg>
