<svg xmlns="http://www.w3.org/2000/svg" width="1080" height="690" viewBox="0 0 1080 690" role="img">
    <style>
      .title { font-family: Georgia, Times, serif; font-size: 42px; fill: #050505; }
      .subtitle { font-family: Arial, Helvetica, sans-serif; font-size: 21px; fill: #8b8b8b; font-weight: 650; }
      .tab { font-family: Arial, Helvetica, sans-serif; font-size: 22px; fill: #4e4e4e; font-weight: 760; }
      .axis { font-family: Arial, Helvetica, sans-serif; font-size: 17px; fill: #767676; font-weight: 600; }
      .axis-title { font-family: Arial, Helvetica, sans-serif; font-size: 21px; fill: #101010; font-weight: 720; }
      .legend { font-family: Arial, Helvetica, sans-serif; font-size: 19px; fill: #151515; font-weight: 680; }
      .bar-label { font-family: Arial, Helvetica, sans-serif; font-size: 21px; fill: #ffffff; font-weight: 800; }
      .bar-label-out { font-family: Arial, Helvetica, sans-serif; font-size: 21px; fill: #111111; font-weight: 800; }
      .point-label { font-family: Arial, Helvetica, sans-serif; font-size: 19px; fill: #333333; font-weight: 700; }
      .small-note { font-family: Arial, Helvetica, sans-serif; font-size: 17px; fill: #949494; font-weight: 650; }
      .brand { font-family: Georgia, Times, serif; font-size: 25px; fill: #555555; }
      .modality { font-family: Arial, Helvetica, sans-serif; font-size: 17px; fill: #6b7280; font-weight: 700; }
    </style>
    <rect x="0" y="0" width="1080" height="690" rx="0" fill="#ffffff"/>
<text x="56" y="74" class="title" text-anchor="start">CUMCM vs. MCM</text>
<text x="56" y="112" class="subtitle" text-anchor="start">O-Eval by contest suite</text>
<rect x="56.00" y="136.00" width="9" height="9" rx="1.5" fill="#8a63ff" transform="rotate(-45 60.50 140.50)" />
<rect x="69.00" y="136.00" width="9" height="9" rx="1.5" fill="#8a63ff" transform="rotate(-45 73.50 140.50)" />
<rect x="56.00" y="150.00" width="9" height="9" rx="1.5" fill="#8a63ff" transform="rotate(-45 60.50 154.50)" />
<text x="90" y="160" class="brand" text-anchor="start">Terminal-Bench Math Modeling</text>
<text x="1096" y="102" class="tab" text-anchor="start">O-Eval</text>
<text x="1246" y="102" class="tab" text-anchor="start">O-Eval vs. Cost</text>
<rect x="1470" y="66" width="200" height="56" rx="8" fill="#efefef"/>
<text x="1486" y="102" class="tab" text-anchor="start">CUMCM vs. MCM</text>
<text x="1716" y="102" class="tab" text-anchor="start">By Year</text>
<text x="1876" y="102" class="tab" text-anchor="start">Token Usage</text>
<rect x="190" y="214" width="760" height="300" rx="0" fill="#fcfcfc"/>
<line x1="190" y1="514" x2="950" y2="514" stroke="#ececec" stroke-width="1"/>
<text x="176" y="520" class="axis" text-anchor="end">0%</text>
<line x1="190" y1="454" x2="950" y2="454" stroke="#ececec" stroke-width="1"/>
<text x="176" y="460" class="axis" text-anchor="end">20%</text>
<line x1="190" y1="394" x2="950" y2="394" stroke="#ececec" stroke-width="1"/>
<text x="176" y="400" class="axis" text-anchor="end">40%</text>
<line x1="190" y1="334" x2="950" y2="334" stroke="#ececec" stroke-width="1"/>
<text x="176" y="340" class="axis" text-anchor="end">60%</text>
<line x1="190" y1="274" x2="950" y2="274" stroke="#ececec" stroke-width="1"/>
<text x="176" y="280" class="axis" text-anchor="end">80%</text>
<line x1="190" y1="214" x2="950" y2="214" stroke="#ececec" stroke-width="1"/>
<text x="176" y="220" class="axis" text-anchor="end">100%</text>
<text x="380" y="548" class="axis-title" text-anchor="middle">CUMCM</text>
<rect x="295" y="285.31" width="74" height="228.69" rx="3" fill="#111111"/>
<text x="332" y="273.31" class="point-label" text-anchor="middle">76.2%</text>
<rect x="391" y="294.4" width="74" height="219.6" rx="3" fill="#00897b"/>
<text x="428" y="282.4" class="point-label" text-anchor="middle">73.2%</text>
<text x="760" y="548" class="axis-title" text-anchor="middle">MCM</text>
<rect x="675" y="392.98" width="74" height="121.02" rx="3" fill="#111111"/>
<text x="712" y="380.98" class="point-label" text-anchor="middle">40.3%</text>
<rect x="771" y="406.69" width="74" height="107.31" rx="3" fill="#00897b"/>
<text x="808" y="394.69" class="point-label" text-anchor="middle">35.8%</text>
<text x="56" y="656" class="small-note" text-anchor="start">Both multimodal models score far higher on CUMCM than on MCM, matching the text-only board.</text>
<rect x="190" y="594" width="16" height="16" rx="3" fill="#111111"/>
<text x="214" y="607" class="legend" text-anchor="start">GPT-5.5 xhigh</text>
<rect x="440" y="594" width="16" height="16" rx="3" fill="#00897b"/>
<text x="464" y="607" class="legend" text-anchor="start">V4.1 Flash</text></svg>
