<svg xmlns="http://www.w3.org/2000/svg" width="1800" height="1100" viewBox="0 0 1800 1100" role="img">
    <style>
      .title { font-family: Georgia, Times, serif; font-size: 42px; fill: #050505; }
      .subtitle { font-family: Arial, Helvetica, sans-serif; font-size: 22px; fill: #8b8b8b; font-weight: 650; }
      .tab { font-family: Arial, Helvetica, sans-serif; font-size: 23px; fill: #4e4e4e; font-weight: 760; }
      .tab-active { fill: #111111; }
      .axis { font-family: Arial, Helvetica, sans-serif; font-size: 18px; fill: #767676; font-weight: 600; }
      .axis-title { font-family: Arial, Helvetica, sans-serif; font-size: 22px; fill: #101010; font-weight: 720; }
      .legend { font-family: Arial, Helvetica, sans-serif; font-size: 20px; fill: #151515; font-weight: 680; }
      .x-label { font-family: Arial, Helvetica, sans-serif; font-size: 18px; fill: #151515; font-weight: 650; }
      .bar-label { font-family: Arial, Helvetica, sans-serif; font-size: 22px; fill: #ffffff; font-weight: 800; }
      .top-label { font-family: Arial, Helvetica, sans-serif; font-size: 19px; fill: #939393; font-weight: 750; }
      .small-note { font-family: Arial, Helvetica, sans-serif; font-size: 18px; fill: #949494; font-weight: 650; }
      .point-label { font-family: Arial, Helvetica, sans-serif; font-size: 19px; fill: #4a4a4a; font-weight: 700; }
      .brand { font-family: Georgia, Times, serif; font-size: 26px; fill: #555555; }
    </style>
    <rect x="24.00" y="24.00" width="1752.00" height="1052.00" fill="#ffffff" stroke="#dddddd" rx="16.00" />
<text x="84.00" y="84.00" text-anchor="start" class="tab">Robust</text>
<text x="276.00" y="84.00" text-anchor="start" class="tab">O-Eval</text>
<text x="468.00" y="84.00" text-anchor="start" class="tab">Token Usage</text>
<text x="730.00" y="84.00" text-anchor="start" class="tab">Cost</text>
<text x="892.00" y="84.00" text-anchor="start" class="tab">Robust vs. Cost</text>
<rect x="1156.00" y="48.00" width="170.00" height="58.00" fill="#efefef" rx="8.00" />
<text x="1174.00" y="84.00" text-anchor="start" class="tab tab-active">O vs. Cost</text>
<line x1="24.00" y1="114.00" x2="1776.00" y2="114.00" stroke="#dddddd" stroke-width="1.20" />
<text x="66.00" y="170.00" text-anchor="start" class="title">O-Eval vs. Cost</text>
<text x="66.00" y="210.00" text-anchor="start" class="subtitle">Primary absolute O-normalized score against estimated RMB cost. Green marks the high-value zone.</text>
<rect x="66.00" y="252.00" width="24.00" height="18.00" fill="#dff7e4" stroke="#98d9a5" rx="3.00" />
<text x="102.00" y="270.00" text-anchor="start" class="legend">Value zone: &lt;=RMB 80, &gt;=80% O-Eval</text>
<line x1="584.00" y1="262.00" x2="644.00" y2="262.00" stroke="#222222" stroke-width="3.00" stroke-dasharray="1 10" />
<text x="660.00" y="270.00" text-anchor="start" class="legend">Pareto line</text>
<rect x="1254.00" y="286.00" width="9" height="9" rx="1.5" fill="#8a63ff" transform="rotate(-45 1258.50 290.50)" />
<rect x="1267.00" y="286.00" width="9" height="9" rx="1.5" fill="#8a63ff" transform="rotate(-45 1271.50 290.50)" />
<rect x="1254.00" y="300.00" width="9" height="9" rx="1.5" fill="#8a63ff" transform="rotate(-45 1258.50 304.50)" />
<text x="1288.00" y="310.00" text-anchor="start" class="brand">Terminal-Bench Math Modeling</text>
<rect x="154.00" y="330.00" width="1298.89" height="186.67" fill="#dff7e4" />
<line x1="1452.89" y1="330.00" x2="1452.89" y2="890.00" stroke="#9ca3af" stroke-width="1.20" stroke-dasharray="6 7" opacity="0.550" />
<rect x="154.00" y="516.67" width="1520.00" height="373.33" fill="#fafafa" />
<line x1="154.00" y1="890.00" x2="1674.00" y2="890.00" stroke="#cfcfcf" stroke-width="1.20" stroke-dasharray="4 8" />
<text x="136.00" y="896.00" text-anchor="end" class="axis">0%</text>
<line x1="154.00" y1="796.67" x2="1674.00" y2="796.67" stroke="#cfcfcf" stroke-width="1.20" stroke-dasharray="4 8" />
<text x="136.00" y="802.67" text-anchor="end" class="axis">20%</text>
<line x1="154.00" y1="703.33" x2="1674.00" y2="703.33" stroke="#cfcfcf" stroke-width="1.20" stroke-dasharray="4 8" />
<text x="136.00" y="709.33" text-anchor="end" class="axis">40%</text>
<line x1="154.00" y1="610.00" x2="1674.00" y2="610.00" stroke="#cfcfcf" stroke-width="1.20" stroke-dasharray="4 8" />
<text x="136.00" y="616.00" text-anchor="end" class="axis">60%</text>
<line x1="154.00" y1="516.67" x2="1674.00" y2="516.67" stroke="#cfcfcf" stroke-width="1.20" stroke-dasharray="4 8" />
<text x="136.00" y="522.67" text-anchor="end" class="axis">80%</text>
<line x1="154.00" y1="423.33" x2="1674.00" y2="423.33" stroke="#cfcfcf" stroke-width="1.20" stroke-dasharray="4 8" />
<text x="136.00" y="429.33" text-anchor="end" class="axis">100%</text>
<line x1="154.00" y1="330.00" x2="1674.00" y2="330.00" stroke="#cfcfcf" stroke-width="1.20" stroke-dasharray="4 8" />
<text x="136.00" y="336.00" text-anchor="end" class="axis">120%</text>
<line x1="288.48" y1="890.00" x2="288.48" y2="898.00" stroke="#777777" stroke-width="1.20" />
<text x="288.48" y="926.00" text-anchor="middle" class="axis">5</text>
<line x1="579.58" y1="890.00" x2="579.58" y2="898.00" stroke="#777777" stroke-width="1.20" />
<text x="579.58" y="926.00" text-anchor="middle" class="axis">10</text>
<line x1="870.68" y1="890.00" x2="870.68" y2="898.00" stroke="#777777" stroke-width="1.20" />
<text x="870.68" y="926.00" text-anchor="middle" class="axis">20</text>
<line x1="1255.50" y1="890.00" x2="1255.50" y2="898.00" stroke="#777777" stroke-width="1.20" />
<text x="1255.50" y="926.00" text-anchor="middle" class="axis">50</text>
<line x1="1452.89" y1="890.00" x2="1452.89" y2="898.00" stroke="#777777" stroke-width="1.20" />
<text x="1452.89" y="926.00" text-anchor="middle" class="axis">80</text>
<line x1="1546.61" y1="890.00" x2="1546.61" y2="898.00" stroke="#777777" stroke-width="1.20" />
<text x="1546.61" y="926.00" text-anchor="middle" class="axis">100</text>
<line x1="154.00" y1="890.00" x2="1674.00" y2="890.00" stroke="#9e9e9e" stroke-width="1.20" />
<line x1="154.00" y1="330.00" x2="154.00" y2="890.00" stroke="#9e9e9e" stroke-width="1.20" />
<text x="914.00" y="972.00" text-anchor="middle" class="axis-title">Estimated cost (RMB, log scale)</text>
<text x="50.00" y="610.00" text-anchor="middle" class="axis-title" transform="rotate(-90 50.00 610.00)">O-Eval (%)</text>
<line x1="154.00" y1="516.67" x2="1674.00" y2="516.67" stroke="#808080" stroke-width="1.20" stroke-dasharray="6 7" opacity="0.550" />
<line x1="154.00" y1="423.33" x2="1674.00" y2="423.33" stroke="#777777" stroke-width="1.80" stroke-dasharray="6 8" opacity="0.750" />
<text x="1664.00" y="413.33" text-anchor="end" class="small-note">O-award = 100%</text>
<text x="1664.00" y="506.67" text-anchor="end" class="small-note">80% O-Eval</text>
<path d="M 274.82 620.19 L 1430.19 447.71" fill="none" stroke="#2f2f2f" stroke-width="3.00" stroke-dasharray="1 11" stroke-linecap="round" />
<circle cx="274.82" cy="620.19" r="11.00" fill="#2f80ed" stroke="#ffffff" stroke-width="3.00" />
<text x="288.82" y="654.19" text-anchor="start" class="point-label">DeepSeek V4 Flash</text>
<text x="288.82" y="678.19" text-anchor="start" class="small-note">57.8% / RMB 4.84</text>
<circle cx="1164.20" cy="640.40" r="11.00" fill="#2945d9" stroke="#ffffff" stroke-width="3.00" />
<text x="994.20" y="606.40" text-anchor="start" class="point-label">DeepSeek V4 Pro</text>
<text x="994.20" y="630.40" text-anchor="start" class="small-note">53.5% / RMB 40.23</text>
<circle cx="1580.29" cy="680.73" r="11.00" fill="#6f6f6f" stroke="#ffffff" stroke-width="3.00" />
<text x="1474.29" y="716.73" text-anchor="start" class="point-label">GLM-5.3</text>
<text x="1474.29" y="740.73" text-anchor="start" class="small-note">44.8% / RMB 108.35</text>
<circle cx="1531.69" cy="577.33" r="11.00" fill="#202020" stroke="#ffffff" stroke-width="3.00" />
<text x="1549.69" y="549.33" text-anchor="start" class="point-label">GPT-5.6 Sol</text>
<text x="1549.69" y="573.33" text-anchor="start" class="small-note">67.0% / RMB 96.51</text>
<circle cx="1430.19" cy="447.71" r="11.00" fill="#1f83ff" stroke="#ffffff" stroke-width="3.00" />
<text x="1448.19" y="419.71" text-anchor="start" class="point-label">Kimi K3</text>
<text x="1448.19" y="443.71" text-anchor="start" class="small-note">94.8% / RMB 75.79</text>
<circle cx="1193.91" cy="702.66" r="11.00" fill="#34a853" stroke="#ffffff" stroke-width="3.00" />
<text x="1211.91" y="760.66" text-anchor="start" class="point-label">Gemini 3.7 Flash (10/12)</text>
<text x="1211.91" y="784.66" text-anchor="start" class="small-note">40.1% / RMB 43.18</text>
<text x="914.00" y="1028.00" text-anchor="middle" class="small-note">This view answers: how close is each model to the O-award reproduction per RMB spent?</text></svg>
