<svg xmlns="http://www.w3.org/2000/svg" width="1800" height="1120" viewBox="0 0 1800 1120" role="img">
    <style>
      .title { font-family: Georgia, Times, serif; font-size: 42px; font-weight: 500; fill: #050505; }
      .subtitle { font-family: Arial, Helvetica, sans-serif; font-size: 22px; fill: #777777; font-weight: 650; }
      .axis { font-family: Arial, Helvetica, sans-serif; font-size: 18px; fill: #777777; font-weight: 650; }
      .axis-title { font-family: Arial, Helvetica, sans-serif; font-size: 22px; fill: #111111; font-weight: 720; }
      .label { font-family: Arial, Helvetica, sans-serif; font-size: 19px; fill: #151515; font-weight: 700; }
      .small { font-family: Arial, Helvetica, sans-serif; font-size: 18px; fill: #777777; font-weight: 650; }
    </style>
    <rect width="1800" height="1120" fill="#ffffff"/><rect x="24.0" y="24.0" width="1752.0" height="1072.0" fill="#ffffff" rx="16.0" stroke="#dedede" />
<text x="72.0" y="126.0" text-anchor="start" font-family="Arial, Helvetica, sans-serif" font-size="42" font-weight="500" fill="#151515">O-Eval by Suite</text>
<text x="72.0" y="168.0" text-anchor="start" font-family="Arial, Helvetica, sans-serif" font-size="22" font-weight="650" fill="#777777">Primary O-normalized score split by CUMCM and MCM, showing where each model&#x27;s absolute performance comes from.</text>
<line x1="132.0" y1="800.0" x2="1672.0" y2="800.0" stroke="#aaaaaa" stroke-width="1.4" />
<text x="114.0" y="806.0" text-anchor="end" font-family="Arial, Helvetica, sans-serif" font-size="18" font-weight="600" fill="#777777">0%</text>
<line x1="132.0" y1="700.0" x2="1672.0" y2="700.0" stroke="#d7d7d7" stroke-width="1.0" stroke-dasharray="4 8" />
<text x="114.0" y="706.0" text-anchor="end" font-family="Arial, Helvetica, sans-serif" font-size="18" font-weight="600" fill="#777777">20%</text>
<line x1="132.0" y1="600.0" x2="1672.0" y2="600.0" stroke="#d7d7d7" stroke-width="1.0" stroke-dasharray="4 8" />
<text x="114.0" y="606.0" text-anchor="end" font-family="Arial, Helvetica, sans-serif" font-size="18" font-weight="600" fill="#777777">40%</text>
<line x1="132.0" y1="500.0" x2="1672.0" y2="500.0" stroke="#d7d7d7" stroke-width="1.0" stroke-dasharray="4 8" />
<text x="114.0" y="506.0" text-anchor="end" font-family="Arial, Helvetica, sans-serif" font-size="18" font-weight="600" fill="#777777">60%</text>
<line x1="132.0" y1="400.0" x2="1672.0" y2="400.0" stroke="#d7d7d7" stroke-width="1.0" stroke-dasharray="4 8" />
<text x="114.0" y="406.0" text-anchor="end" font-family="Arial, Helvetica, sans-serif" font-size="18" font-weight="600" fill="#777777">80%</text>
<line x1="132.0" y1="300.0" x2="1672.0" y2="300.0" stroke="#d7d7d7" stroke-width="1.0" stroke-dasharray="4 8" />
<text x="114.0" y="306.0" text-anchor="end" font-family="Arial, Helvetica, sans-serif" font-size="18" font-weight="600" fill="#777777">100%</text>
<text x="493.0" y="850.0" text-anchor="middle" font-family="Arial, Helvetica, sans-serif" font-size="24" font-weight="800" fill="#151515">CUMCM</text>
<rect x="132.0" y="403.8" width="44.5" height="396.2" fill="#2f80ed" rx="5.0" />
<text x="154.2" y="608.9" text-anchor="middle" font-family="Arial, Helvetica, sans-serif" font-size="15" font-weight="800" fill="#ffffff">79</text>
<rect x="188.5" y="360.9" width="44.5" height="439.1" fill="#00897b" rx="5.0" />
<text x="210.7" y="587.4" text-anchor="middle" font-family="Arial, Helvetica, sans-serif" font-size="15" font-weight="800" fill="#ffffff">88</text>
<rect x="244.9" y="358.9" width="44.5" height="441.1" fill="#000000" rx="5.0" />
<text x="267.2" y="586.4" text-anchor="middle" font-family="Arial, Helvetica, sans-serif" font-size="15" font-weight="800" fill="#ffffff">88</text>
<rect x="301.4" y="409.6" width="44.5" height="390.4" fill="#2945d9" rx="5.0" />
<text x="323.6" y="611.8" text-anchor="middle" font-family="Arial, Helvetica, sans-serif" font-size="15" font-weight="800" fill="#ffffff">78</text>
<rect x="357.8" y="459.8" width="44.5" height="340.2" fill="#6f6f6f" rx="5.0" />
<text x="380.1" y="636.9" text-anchor="middle" font-family="Arial, Helvetica, sans-serif" font-size="15" font-weight="800" fill="#ffffff">68</text>
<rect x="414.3" y="390.5" width="44.5" height="409.5" fill="#202020" rx="5.0" />
<text x="436.5" y="602.3" text-anchor="middle" font-family="Arial, Helvetica, sans-serif" font-size="15" font-weight="800" fill="#ffffff">82</text>
<rect x="470.8" y="455.6" width="44.5" height="344.4" fill="#0f766e" rx="5.0" />
<text x="493.0" y="634.8" text-anchor="middle" font-family="Arial, Helvetica, sans-serif" font-size="15" font-weight="800" fill="#ffffff">69</text>
<rect x="527.2" y="370.9" width="44.5" height="429.1" fill="#1f83ff" rx="5.0" />
<text x="549.5" y="592.5" text-anchor="middle" font-family="Arial, Helvetica, sans-serif" font-size="15" font-weight="800" fill="#ffffff">86</text>
<rect x="583.7" y="360.1" width="44.5" height="439.9" fill="#34a853" rx="5.0" />
<text x="605.9" y="587.1" text-anchor="middle" font-family="Arial, Helvetica, sans-serif" font-size="15" font-weight="800" fill="#ffffff">88</text>
<rect x="640.2" y="363.6" width="44.5" height="436.4" fill="#7c3aed" rx="5.0" />
<text x="662.4" y="588.8" text-anchor="middle" font-family="Arial, Helvetica, sans-serif" font-size="15" font-weight="800" fill="#ffffff">87</text>
<rect x="696.6" y="434.4" width="44.5" height="365.6" fill="#f59e0b" rx="5.0" />
<text x="718.8" y="624.2" text-anchor="middle" font-family="Arial, Helvetica, sans-serif" font-size="15" font-weight="800" fill="#ffffff">73</text>
<rect x="753.1" y="461.0" width="44.5" height="339.0" fill="#0f766e" rx="5.0" />
<text x="775.3" y="637.5" text-anchor="middle" font-family="Arial, Helvetica, sans-serif" font-size="15" font-weight="800" fill="#ffffff">68</text>
<rect x="809.5" y="410.3" width="44.5" height="389.7" fill="#dc2626" rx="5.0" />
<text x="831.8" y="612.1" text-anchor="middle" font-family="Arial, Helvetica, sans-serif" font-size="15" font-weight="800" fill="#ffffff">78</text>
<text x="1311.0" y="850.0" text-anchor="middle" font-family="Arial, Helvetica, sans-serif" font-size="24" font-weight="800" fill="#151515">MCM</text>
<rect x="950.0" y="614.8" width="44.5" height="185.2" fill="#2f80ed" rx="5.0" />
<text x="972.2" y="714.4" text-anchor="middle" font-family="Arial, Helvetica, sans-serif" font-size="15" font-weight="800" fill="#ffffff">37</text>
<rect x="1006.5" y="617.2" width="44.5" height="182.8" fill="#00897b" rx="5.0" />
<text x="1028.7" y="715.6" text-anchor="middle" font-family="Arial, Helvetica, sans-serif" font-size="15" font-weight="800" fill="#ffffff">37</text>
<rect x="1062.9" y="598.3" width="44.5" height="201.7" fill="#000000" rx="5.0" />
<text x="1085.2" y="706.1" text-anchor="middle" font-family="Arial, Helvetica, sans-serif" font-size="15" font-weight="800" fill="#ffffff">40</text>
<rect x="1119.4" y="605.9" width="44.5" height="194.1" fill="#2945d9" rx="5.0" />
<text x="1141.6" y="710.0" text-anchor="middle" font-family="Arial, Helvetica, sans-serif" font-size="15" font-weight="800" fill="#ffffff">39</text>
<rect x="1175.8" y="577.7" width="44.5" height="222.3" fill="#6f6f6f" rx="5.0" />
<text x="1198.1" y="695.8" text-anchor="middle" font-family="Arial, Helvetica, sans-serif" font-size="15" font-weight="800" fill="#ffffff">44</text>
<rect x="1232.3" y="608.4" width="44.5" height="191.6" fill="#202020" rx="5.0" />
<text x="1254.5" y="711.2" text-anchor="middle" font-family="Arial, Helvetica, sans-serif" font-size="15" font-weight="800" fill="#ffffff">38</text>
<rect x="1288.8" y="576.1" width="44.5" height="223.9" fill="#0f766e" rx="5.0" />
<text x="1311.0" y="695.0" text-anchor="middle" font-family="Arial, Helvetica, sans-serif" font-size="15" font-weight="800" fill="#ffffff">45</text>
<rect x="1345.2" y="586.7" width="44.5" height="213.3" fill="#1f83ff" rx="5.0" />
<text x="1367.5" y="700.3" text-anchor="middle" font-family="Arial, Helvetica, sans-serif" font-size="15" font-weight="800" fill="#ffffff">43</text>
<rect x="1401.7" y="704.0" width="44.5" height="96.0" fill="#34a853" rx="5.0" />
<text x="1423.9" y="759.0" text-anchor="middle" font-family="Arial, Helvetica, sans-serif" font-size="15" font-weight="800" fill="#ffffff">19</text>
<rect x="1458.2" y="614.0" width="44.5" height="186.0" fill="#7c3aed" rx="5.0" />
<text x="1480.4" y="714.0" text-anchor="middle" font-family="Arial, Helvetica, sans-serif" font-size="15" font-weight="800" fill="#ffffff">37</text>
<rect x="1514.6" y="614.7" width="44.5" height="185.3" fill="#f59e0b" rx="5.0" />
<text x="1536.8" y="714.3" text-anchor="middle" font-family="Arial, Helvetica, sans-serif" font-size="15" font-weight="800" fill="#ffffff">37</text>
<rect x="1571.1" y="625.8" width="44.5" height="174.2" fill="#0f766e" rx="5.0" />
<text x="1593.3" y="719.9" text-anchor="middle" font-family="Arial, Helvetica, sans-serif" font-size="15" font-weight="800" fill="#ffffff">35</text>
<rect x="1627.5" y="571.5" width="44.5" height="228.5" fill="#dc2626" rx="5.0" />
<text x="1649.8" y="692.7" text-anchor="middle" font-family="Arial, Helvetica, sans-serif" font-size="15" font-weight="800" fill="#ffffff">46</text>
<rect x="132.0" y="940.0" width="22.0" height="16.0" fill="#2f80ed" rx="3.0" />
<text x="164.0" y="956.0" text-anchor="start" font-family="Arial, Helvetica, sans-serif" font-size="18" font-weight="600" fill="#555555">DeepSeek V4 Flash</text>
<rect x="492.0" y="940.0" width="22.0" height="16.0" fill="#00897b" rx="3.0" />
<text x="524.0" y="956.0" text-anchor="start" font-family="Arial, Helvetica, sans-serif" font-size="18" font-weight="600" fill="#555555">DeepSeek Flash (opencode)</text>
<rect x="852.0" y="940.0" width="22.0" height="16.0" fill="#000000" rx="3.0" />
<text x="884.0" y="956.0" text-anchor="start" font-family="Arial, Helvetica, sans-serif" font-size="18" font-weight="600" fill="#555555">GPT-5.5 xhigh (codex)</text>
<rect x="1212.0" y="940.0" width="22.0" height="16.0" fill="#2945d9" rx="3.0" />
<text x="1244.0" y="956.0" text-anchor="start" font-family="Arial, Helvetica, sans-serif" font-size="18" font-weight="600" fill="#555555">DeepSeek V4 Pro</text>
<rect x="132.0" y="982.0" width="22.0" height="16.0" fill="#6f6f6f" rx="3.0" />
<text x="164.0" y="998.0" text-anchor="start" font-family="Arial, Helvetica, sans-serif" font-size="18" font-weight="600" fill="#555555">GLM-5.3</text>
<rect x="492.0" y="982.0" width="22.0" height="16.0" fill="#202020" rx="3.0" />
<text x="524.0" y="998.0" text-anchor="start" font-family="Arial, Helvetica, sans-serif" font-size="18" font-weight="600" fill="#555555">GPT-5.6 Sol</text>
<rect x="852.0" y="982.0" width="22.0" height="16.0" fill="#0f766e" rx="3.0" />
<text x="884.0" y="998.0" text-anchor="start" font-family="Arial, Helvetica, sans-serif" font-size="18" font-weight="600" fill="#555555">GPT-5.6 Sol XH</text>
<rect x="1212.0" y="982.0" width="22.0" height="16.0" fill="#1f83ff" rx="3.0" />
<text x="1244.0" y="998.0" text-anchor="start" font-family="Arial, Helvetica, sans-serif" font-size="18" font-weight="600" fill="#555555">Kimi K3</text>
<rect x="132.0" y="1024.0" width="22.0" height="16.0" fill="#34a853" rx="3.0" />
<text x="164.0" y="1040.0" text-anchor="start" font-family="Arial, Helvetica, sans-serif" font-size="18" font-weight="600" fill="#555555">Gemini 3.7 Flash</text>
<rect x="492.0" y="1024.0" width="22.0" height="16.0" fill="#7c3aed" rx="3.0" />
<text x="524.0" y="1040.0" text-anchor="start" font-family="Arial, Helvetica, sans-serif" font-size="18" font-weight="600" fill="#555555">Qwen3.8 27B</text>
<rect x="852.0" y="1024.0" width="22.0" height="16.0" fill="#f59e0b" rx="3.0" />
<text x="884.0" y="1040.0" text-anchor="start" font-family="Arial, Helvetica, sans-serif" font-size="18" font-weight="600" fill="#555555">GLM-5.3-Flash</text>
<rect x="1212.0" y="1024.0" width="22.0" height="16.0" fill="#0f766e" rx="3.0" />
<text x="1244.0" y="1040.0" text-anchor="start" font-family="Arial, Helvetica, sans-serif" font-size="18" font-weight="600" fill="#555555">Qwen3.8 Flash</text>
<rect x="132.0" y="1066.0" width="22.0" height="16.0" fill="#dc2626" rx="3.0" />
<text x="164.0" y="1082.0" text-anchor="start" font-family="Arial, Helvetica, sans-serif" font-size="18" font-weight="600" fill="#555555">Hy4 Preview</text></svg>
